<?xml version="1.0" encoding="UTF-8"?>
<svg version="1.1" xmlns="http://www.w3.org/2000/svg" width="522" height="478">
<path d="M0 0 C1.2998735 0.00406357 1.2998735 0.00406357 2.62600708 0.00820923 C16.81368435 0.07517297 30.48676757 1.03479383 44.3125 4.4375 C45.10043945 4.63005371 45.88837891 4.82260742 46.70019531 5.02099609 C74.24905272 11.99856324 99.2610257 25.70923434 121.3125 43.4375 C122.72982422 44.50871094 122.72982422 44.50871094 124.17578125 45.6015625 C124.88089844 46.20742188 125.58601563 46.81328125 126.3125 47.4375 C126.3125 48.0975 126.3125 48.7575 126.3125 49.4375 C126.9725 49.4375 127.6325 49.4375 128.3125 49.4375 C128.3125 50.0975 128.3125 50.7575 128.3125 51.4375 C129.6325 52.0975 130.9525 52.7575 132.3125 53.4375 C132.3125 54.0975 132.3125 54.7575 132.3125 55.4375 C132.9725 55.4375 133.6325 55.4375 134.3125 55.4375 C134.3125 56.0975 134.3125 56.7575 134.3125 57.4375 C134.9725 57.4375 135.6325 57.4375 136.3125 57.4375 C138.10950895 59.4825809 139.78308461 61.53102618 141.4375 63.6875 C141.92887451 64.32284668 142.42024902 64.95819336 142.92651367 65.61279297 C150.15289891 75.04792679 156.28091848 84.65758746 161.3125 95.4375 C161.75464844 96.365625 162.19679688 97.29375 162.65234375 98.25 C179.72397477 134.78017701 182.74020539 178.10235455 168.96875 216.265625 C163.13354238 231.68978661 155.39376632 246.35737597 145.3125 259.4375 C156.86238417 256.48117035 168.74802429 252.04910085 175.3125 241.4375 C176.89576872 238.21247771 178.36258215 234.94932734 179.81640625 231.6640625 C183.73785862 223.20683101 188.28336392 216.7974523 197.13671875 213.33203125 C205.14133382 211.07734878 213.10626781 211.59658926 220.5078125 215.3671875 C222.14257075 216.33671945 223.73107317 217.38321544 225.3125 218.4375 C225.3125 219.0975 225.3125 219.7575 225.3125 220.4375 C225.90675781 220.64632812 226.50101562 220.85515625 227.11328125 221.0703125 C230.1512888 222.95894952 230.97499408 225.10567521 232.5 228.3125 C233.00917969 229.36179688 233.51835937 230.41109375 234.04296875 231.4921875 C238.27547211 241.31159528 237.05178389 252.25253243 233.66796875 262.171875 C231.31575009 267.83889171 228.40021858 273.13807289 225.3125 278.4375 C224.6525 278.4375 223.9925 278.4375 223.3125 278.4375 C223.0546875 279.00339844 222.796875 279.56929688 222.53125 280.15234375 C221.18395886 282.67851463 219.59831825 284.76394367 217.8125 287 C215.86863602 289.44218505 214.04598485 291.83727272 212.3125 294.4375 C212.84617187 294.2209375 213.37984375 294.004375 213.9296875 293.78125 C220.91233169 291.17181895 227.11102698 290.5972054 234.4375 292.0625 C242.47881707 295.9083473 247.84699557 301.12748418 251.3125 309.4375 C254.01293274 320.63870325 251.04553609 330.74067337 245.3125 340.4375 C243.77734375 342.7265625 243.77734375 342.7265625 242.3125 344.4375 C241.6525 344.4375 240.9925 344.4375 240.3125 344.4375 C240.3125 345.0975 240.3125 345.7575 240.3125 346.4375 C238.1875 348.2421875 238.1875 348.2421875 235.3125 350.3125 C234.384375 350.99054688 233.45625 351.66859375 232.5 352.3671875 C216.70834821 362.62402016 199.51214959 364.19649451 181.125 363.75 C179.28453635 363.72482377 177.44403856 363.70202745 175.60351562 363.68164062 C171.17230505 363.62752538 166.74280157 363.54179902 162.3125 363.4375 C163.84100586 363.7166626 163.84100586 363.7166626 165.40039062 364.00146484 C166.75658587 364.25839111 168.11270153 364.51573767 169.46875 364.7734375 C170.1380957 364.89452881 170.80744141 365.01562012 171.49707031 365.14038086 C181.13156823 366.99543394 187.19073279 371.47676729 193.03515625 379.19140625 C196.57285297 385.41212678 195.9912439 393.62294794 194.1484375 400.33984375 C192.53289825 404.39379038 190.13942989 408.11893013 187.3125 411.4375 C186.6525 411.4375 185.9925 411.4375 185.3125 411.4375 C185.3125 412.0975 185.3125 412.7575 185.3125 413.4375 C183.44140625 414.83984375 183.44140625 414.83984375 180.875 416.375 C180.05128906 416.87902344 179.22757812 417.38304687 178.37890625 417.90234375 C170.47439542 421.85963389 163.50236045 422.96286743 154.6875 422.875 C153.63079102 422.86815186 152.57408203 422.86130371 151.48535156 422.85424805 C142.86693927 422.67848299 135.44426837 421.42407675 127.3125 418.4375 C126.34183594 418.09847656 125.37117188 417.75945312 124.37109375 417.41015625 C111.47910207 412.4813812 98.8525664 405.33463039 88.3125 396.4375 C87.3225 395.7775 86.3325 395.1175 85.3125 394.4375 C85.3125 393.7775 85.3125 393.1175 85.3125 392.4375 C84.6525 392.4375 83.9925 392.4375 83.3125 392.4375 C86.1920976 397.01498509 86.1920976 397.01498509 90.3125 400.4375 C90.3125 401.0975 90.3125 401.7575 90.3125 402.4375 C91.03308594 402.68886719 91.75367188 402.94023437 92.49609375 403.19921875 C95.55352757 404.5434719 97.78101758 406.15316413 100.375 408.25 C101.62990234 409.24966797 101.62990234 409.24966797 102.91015625 410.26953125 C107.79009795 414.67338108 110.81867696 418.85447568 111.53515625 425.50390625 C111.85854338 433.58858446 109.93396227 439.87282732 104.75 446.125 C96.37932065 454.91037356 87.23213246 458.38822967 75.3125 458.875 C54.9480423 458.51098785 39.49681607 447.62181607 25.49609375 433.62109375 C14.52693489 421.83751939 0.3125 401.90291577 0.3125 385.4375 C-0.3475 385.4375 -1.0075 385.4375 -1.6875 385.4375 C-1.78804687 386.43394531 -1.88859375 387.43039062 -1.9921875 388.45703125 C-2.60022971 392.67413233 -4.06045448 396.26377397 -5.8125 400.125 C-6.12018311 400.81400391 -6.42786621 401.50300781 -6.74487305 402.21289062 C-9.60438929 408.48771846 -12.65864659 414.8247438 -16.6875 420.4375 C-17.3475 420.4375 -18.0075 420.4375 -18.6875 420.4375 C-18.9040625 421.12199219 -19.120625 421.80648438 -19.34375 422.51171875 C-21.08473088 426.30240096 -23.46358778 429.11809532 -26.1875 432.25 C-26.72503906 432.8694751 -27.26257813 433.4889502 -27.81640625 434.12719727 C-32.32939021 439.22097452 -37.05528966 443.58752519 -42.6875 447.4375 C-43.59886719 448.06269531 -44.51023438 448.68789063 -45.44921875 449.33203125 C-57.67045897 457.08248399 -71.7914537 460.65406713 -86.10546875 457.7421875 C-97.46437291 454.63123331 -105.30881222 448.44298879 -111.86328125 438.6875 C-113.08490899 435.35262997 -113.01607548 432.06695472 -113 428.5625 C-113.01611328 427.86769531 -113.03222656 427.17289062 -113.04882812 426.45703125 C-113.05443771 420.49965521 -111.49188095 416.58020238 -107.6875 412.0625 C-104.07917253 408.90521347 -100.25313311 406.15499062 -96.35546875 403.3671875 C-90.75706608 399.59952803 -90.75706608 399.59952803 -86.6875 394.4375 C-86.0275 394.4375 -85.3675 394.4375 -84.6875 394.4375 C-85.0175 393.7775 -85.3475 393.1175 -85.6875 392.4375 C-86.368125 392.97117187 -87.04875 393.50484375 -87.75 394.0546875 C-98.47533161 402.29835994 -109.91284621 410.7164323 -122.6875 415.4375 C-123.78835937 415.85644531 -124.88921875 416.27539062 -126.0234375 416.70703125 C-141.03268589 422.25949308 -159.92760439 426.76523799 -175.2734375 419.75 C-176.07007813 419.316875 -176.86671875 418.88375 -177.6875 418.4375 C-179.09902344 417.7259375 -179.09902344 417.7259375 -180.5390625 417 C-188.1419807 412.73744748 -193.56240448 406.83778767 -196.3515625 398.4375 C-197.56804526 391.19518403 -197.17619224 384.89804118 -193.6875 378.4375 C-193.171875 377.468125 -192.65625 376.49875 -192.125 375.5 C-191.650625 374.819375 -191.17625 374.13875 -190.6875 373.4375 C-190.0275 373.4375 -189.3675 373.4375 -188.6875 373.4375 C-188.6875 372.7775 -188.6875 372.1175 -188.6875 371.4375 C-183.6149303 368.26464431 -179.06958208 366.48665648 -173.25 365.1875 C-172.15268555 364.92839844 -172.15268555 364.92839844 -171.03320312 364.6640625 C-169.25359712 364.24533167 -167.47085049 363.83998487 -165.6875 363.4375 C-166.69425781 363.45844727 -167.70101562 363.47939453 -168.73828125 363.50097656 C-172.55518767 363.57462608 -176.37203482 363.61974209 -180.18945312 363.65722656 C-181.82628007 363.67706301 -183.46303895 363.70414112 -185.09960938 363.73925781 C-196.65237005 363.98053168 -206.60172512 362.81793064 -217.6875 359.4375 C-218.48808838 359.20353516 -219.28867676 358.96957031 -220.11352539 358.72851562 C-232.1711468 355.02516302 -242.9750171 346.58767527 -249.0625 335.6875 C-253.31479558 327.54674161 -254.43558622 317.81231441 -251.96875 308.81640625 C-251.02007226 306.85402044 -249.9891269 305.18296033 -248.6875 303.4375 C-247.57375 301.8596875 -247.57375 301.8596875 -246.4375 300.25 C-242.11232039 295.82652085 -237.04366723 291.90258541 -230.6875 291.4375 C-230.05457031 291.38722656 -229.42164063 291.33695312 -228.76953125 291.28515625 C-222.37175751 291.00206892 -216.75755753 292.53138848 -210.6875 294.4375 C-211.265 293.88320313 -211.8425 293.32890625 -212.4375 292.7578125 C-213.18 292.03335937 -213.9225 291.30890625 -214.6875 290.5625 C-215.43 289.84320313 -216.1725 289.12390625 -216.9375 288.3828125 C-218.6875 286.4375 -218.6875 286.4375 -218.6875 284.4375 C-219.3475 284.4375 -220.0075 284.4375 -220.6875 284.4375 C-231.14484554 274.01253014 -236.50192041 258.27587231 -236.875 243.875 C-236.69427853 234.37890821 -233.38163508 225.99727701 -226.50390625 219.31640625 C-218.13162893 212.52540222 -210.31908851 211.47207548 -199.6875 212.4375 C-193.76505932 214.00271646 -189.67769362 216.76327319 -185.6875 221.4375 C-185.06617188 222.13746094 -184.44484375 222.83742187 -183.8046875 223.55859375 C-181.1433788 227.17738436 -179.43755535 230.96940776 -177.625 235.0625 C-176.95287116 236.57831056 -176.27469059 238.09145535 -175.58984375 239.6015625 C-175.29585693 240.26623535 -175.00187012 240.9309082 -174.69897461 241.61572266 C-173.74839971 243.52542474 -173.74839971 243.52542474 -172.06860352 245.05224609 C-170.6875 246.4375 -170.6875 246.4375 -170.6875 248.4375 C-169.83671875 248.84162109 -169.83671875 248.84162109 -168.96875 249.25390625 C-166.59170888 250.48719984 -164.42699601 251.90813011 -162.1875 253.375 C-156.63899161 256.76207452 -151.0226315 258.19659795 -144.6875 259.4375 C-144.6875 258.7775 -144.6875 258.1175 -144.6875 257.4375 C-145.3475 257.4375 -146.0075 257.4375 -146.6875 257.4375 C-148.1953125 255.5390625 -148.1953125 255.5390625 -149.8125 253.0625 C-150.35132813 252.25039063 -150.89015625 251.43828125 -151.4453125 250.6015625 C-152.6875 248.4375 -152.6875 248.4375 -152.6875 246.4375 C-153.3475 246.4375 -154.0075 246.4375 -154.6875 246.4375 C-160.9016281 235.40397034 -165.91326791 224.52743657 -169.6875 212.4375 C-170.07808594 211.20902344 -170.46867187 209.98054687 -170.87109375 208.71484375 C-174.90289455 195.37888727 -176.03911332 182.52044919 -176.00317383 168.6730957 C-176.00001749 166.13904579 -176.02355041 163.60617202 -176.04882812 161.07226562 C-176.10551515 146.760663 -173.90248109 133.57442473 -169.875 119.8125 C-169.61783203 118.92570557 -169.36066406 118.03891113 -169.09570312 117.12524414 C-165.569262 105.30072667 -160.34238025 94.3863107 -154.6875 83.4375 C-154.0275 83.4375 -153.3675 83.4375 -152.6875 83.4375 C-152.584375 82.8703125 -152.48125 82.303125 -152.375 81.71875 C-150.974273 77.07088312 -147.52732872 73.31142532 -144.6875 69.4375 C-144.29868652 68.89834961 -143.90987305 68.35919922 -143.50927734 67.80371094 C-142.30535536 66.13436267 -141.09179348 64.47248331 -139.875 62.8125 C-139.12605469 61.78898437 -138.37710938 60.76546875 -137.60546875 59.7109375 C-136.97253906 58.96070313 -136.33960938 58.21046875 -135.6875 57.4375 C-135.0275 57.4375 -134.3675 57.4375 -133.6875 57.4375 C-133.6875 56.7775 -133.6875 56.1175 -133.6875 55.4375 C-133.0275 55.4375 -132.3675 55.4375 -131.6875 55.4375 C-131.0275 54.1175 -130.3675 52.7975 -129.6875 51.4375 C-129.0275 51.4375 -128.3675 51.4375 -127.6875 51.4375 C-127.6875 50.7775 -127.6875 50.1175 -127.6875 49.4375 C-123.21691176 45.4375 -123.21691176 45.4375 -120.6875 45.4375 C-120.47351563 44.86257812 -120.25953125 44.28765625 -120.0390625 43.6953125 C-118.21225544 40.64359435 -116.01108614 39.29529614 -113.0625 37.3125 C-112.49200928 36.92852051 -111.92151855 36.54454102 -111.33374023 36.14892578 C-109.46036954 34.89799517 -107.5758609 33.6656713 -105.6875 32.4375 C-104.72142822 31.80521484 -104.72142822 31.80521484 -103.73583984 31.16015625 C-86.88953455 20.19318234 -69.32460561 11.68987772 -49.9375 6.25 C-49.10605469 6.0120874 -48.27460938 5.7741748 -47.41796875 5.52905273 C-31.77315326 1.31846184 -16.14918592 -0.11945327 0 0 Z M-38.6875 30.4375 C-40.27714191 30.82764625 -41.86698726 31.21696443 -43.45703125 31.60546875 C-63.48631159 36.67299293 -81.31785606 45.95826504 -97.6875 58.4375 C-98.6775 59.0975 -99.6675 59.7575 -100.6875 60.4375 C-100.6875 61.0975 -100.6875 61.7575 -100.6875 62.4375 C-101.57369019 62.83799561 -101.57369019 62.83799561 -102.4777832 63.24658203 C-119.16482807 72.23999766 -130.29235624 93.3451831 -138.6875 109.4375 C-139.20441406 110.41589844 -139.72132813 111.39429687 -140.25390625 112.40234375 C-154.78128819 141.95805183 -155.00983789 178.00792847 -145 208.875 C-140.44544662 222.02767588 -133.4231645 235.56505426 -124.6875 246.4375 C-124.0275 246.4375 -123.3675 246.4375 -122.6875 246.4375 C-122.42179199 247.03135498 -122.15608398 247.62520996 -121.88232422 248.23706055 C-120.65610145 250.49532491 -119.4282691 251.88635078 -117.5703125 253.64453125 C-116.96316406 254.23169922 -116.35601562 254.81886719 -115.73046875 255.42382812 C-114.46177094 256.63180414 -113.19096728 257.83757268 -111.91796875 259.04101562 C-106.2266067 264.55790674 -102.13807412 269.95503646 -101.51171875 278.09765625 C-101.82905582 282.32176518 -103.69922405 285.76305363 -105.6875 289.4375 C-106.35692576 290.76945022 -107.02443611 292.10237135 -107.6875 293.4375 C-108.3475 293.4375 -109.0075 293.4375 -109.6875 293.4375 C-111.85416667 295.27083333 -111.85416667 295.27083333 -113.6875 297.4375 C-113.6875 298.0975 -113.6875 298.7575 -113.6875 299.4375 C-114.265 299.71078125 -114.8425 299.9840625 -115.4375 300.265625 C-117.66923655 301.42798779 -119.63192805 302.73925613 -121.6875 304.1875 C-146.04744291 320.56057638 -178.61324153 326.59116504 -207.375 321.125 C-210.86794285 320.34924654 -213.64162811 319.46069174 -216.83984375 317.84375 C-220.3035347 316.13328533 -222.87433555 316.20871013 -226.6875 316.4375 C-227.27298236 322.13899228 -227.27298236 322.13899228 -224.8125 327.0625 C-207.83740811 339.96356983 -188.11842553 341.53075022 -167.36962891 339.0390625 C-154.56005056 337.06045542 -142.40654317 334.02163937 -130.6875 328.4375 C-129.80320312 328.01855469 -128.91890625 327.59960938 -128.0078125 327.16796875 C-126.21752969 326.2914116 -124.44832837 325.37181709 -122.6875 324.4375 C-122.6875 323.7775 -122.6875 323.1175 -122.6875 322.4375 C-122.0275 322.4375 -121.3675 322.4375 -120.6875 322.4375 C-120.6875 321.7775 -120.6875 321.1175 -120.6875 320.4375 C-120.0275 320.4375 -119.3675 320.4375 -118.6875 320.4375 C-117.40968449 318.87180881 -116.1896327 317.25869992 -115 315.625 C-111.43490706 311.10451344 -109.36544226 308.63285626 -103.6875 307.4375 C-99.50044777 307.69699905 -95.98755771 308.12273576 -92.9609375 311.18359375 C-90.42101582 315.6790993 -90.83405479 320.46881212 -91.6875 325.4375 C-93.27357352 328.85426534 -95.07957513 331.89932787 -97.15625 335.0390625 C-98.86687282 337.2441959 -98.86687282 337.2441959 -98.6875 339.4375 C-99.3475 339.4375 -100.0075 339.4375 -100.6875 339.4375 C-101.57368008 340.74904652 -102.45138717 342.06667945 -103.30078125 343.40234375 C-118.17269711 365.22845125 -138.4837037 379.55844907 -163.60449219 386.82275391 C-166.32274165 387.62497521 -169.00644978 388.51939116 -171.6875 389.4375 C-171.66224816 392.34788542 -171.66224816 392.34788542 -170.6875 395.4375 C-163.72089874 399.86419455 -155.52897133 399.59167841 -147.62646484 398.03027344 C-125.06128518 392.45743106 -103.72049427 378.11195063 -88.6875 360.4375 C-88.6875 359.7775 -88.6875 359.1175 -88.6875 358.4375 C-88.0275 358.4375 -87.3675 358.4375 -86.6875 358.4375 C-85.00761429 356.36785663 -83.46138231 354.30579117 -81.9375 352.125 C-81.48866455 351.48925049 -81.0398291 350.85350098 -80.57739258 350.19848633 C-76.84084476 344.82429492 -73.69180521 339.24998368 -70.6875 333.4375 C-69.32533934 331.02391029 -67.95187336 328.6173694 -66.5703125 326.21484375 C-65.53921667 324.46971785 -65.53921667 324.46971785 -65.6875 322.4375 C-60.39045908 319.78897954 -55.50725008 319.88580977 -49.8125 321 C-47.22683051 322.74912936 -46.61272329 324.33038869 -45.96484375 327.34765625 C-42.84478528 350.857956 -51.01707232 377.64165605 -61.33203125 398.5234375 C-62.82808466 401.20408929 -62.82808466 401.20408929 -62.6875 403.4375 C-63.3475 403.4375 -64.0075 403.4375 -64.6875 403.4375 C-65.76656011 404.89617405 -66.77513971 406.40722286 -67.75 407.9375 C-73.29187325 416.06634727 -80.2482387 421.52738434 -88.6875 426.4375 C-88.43060052 429.60592693 -88.10479253 431.04712957 -85.75 433.25 C-78.68511163 435.98944651 -71.56753452 434.79334728 -64.671875 432.0078125 C-42.16090642 420.16303584 -29.59287678 397.70989531 -21.6875 374.4375 C-18.45616972 363.94316113 -16.23556685 353.22353221 -14.76245117 342.34716797 C-13.94708774 336.69706252 -12.42052764 331.03460101 -7.6875 327.4375 C-3.2283223 325.68568019 1.69793621 325.740302 6.0625 327.625 C10.8546936 331.48537818 11.7654999 335.83874423 12.625 341.75 C16.69762239 367.17072759 23.44013047 391.33035571 39.359375 411.90625 C40.74379056 413.70045257 42.05542534 415.551888 43.3125 417.4375 C43.9725 417.4375 44.6325 417.4375 45.3125 417.4375 C45.3125 418.0975 45.3125 418.7575 45.3125 419.4375 C45.9725 419.4375 46.6325 419.4375 47.3125 419.4375 C47.3125 420.0975 47.3125 420.7575 47.3125 421.4375 C57.41160141 430.01431039 66.96752109 435.25939497 80.3125 434.4375 C83.27226672 433.9423792 83.27226672 433.9423792 85.3125 432.4375 C86.67328035 429.91377099 86.67328035 429.91377099 87.3125 427.4375 C83.28902412 423.96778623 83.28902412 423.96778623 78.3125 422.4375 C78.3125 421.7775 78.3125 421.1175 78.3125 420.4375 C75.67565253 418.03929695 75.67565253 418.03929695 72.3125 417.4375 C72.3125 416.7775 72.3125 416.1175 72.3125 415.4375 C71.6525 415.4375 70.9925 415.4375 70.3125 415.4375 C70.044375 414.86 69.77625 414.2825 69.5 413.6875 C68.28320811 411.38199957 67.00916121 409.41693808 65.3125 407.4375 C64.6525 407.4375 63.9925 407.4375 63.3125 407.4375 C63.06113281 406.60089844 62.80976563 405.76429688 62.55078125 404.90234375 C61.18340309 401.07627299 59.38910423 397.58325537 57.5 394 C53.57164211 386.33707965 50.71999981 378.70753751 48.3125 370.4375 C48.01601563 369.42171875 47.71953125 368.4059375 47.4140625 367.359375 C44.5447672 356.73445972 43.18477474 345.86371701 42.875 334.875 C42.83503906 333.59496094 42.79507812 332.31492187 42.75390625 330.99609375 C43.49338932 326.28512117 44.92833743 324.74215214 48.3125 321.4375 C52.72301322 319.96732893 56.59743506 319.61688064 60.86474609 321.65869141 C63.59062485 323.63961626 64.60692008 325.15509586 66.1015625 328.1484375 C66.56820313 329.06367188 67.03484375 329.97890625 67.515625 330.921875 C67.98484375 331.87578125 68.4540625 332.8296875 68.9375 333.8125 C69.88688939 335.69588327 70.83737634 337.57871376 71.7890625 339.4609375 C72.20236816 340.29544434 72.61567383 341.12995117 73.04150391 341.98974609 C74.37298603 344.55398731 75.70284759 347.03614501 77.3125 349.4375 C77.9725 349.4375 78.6325 349.4375 79.3125 349.4375 C79.56 350.15292969 79.8075 350.86835938 80.0625 351.60546875 C81.45113595 354.75159706 83.15713946 357.07560963 85.3125 359.75 C86.01375 360.63300781 86.715 361.51601563 87.4375 362.42578125 C88.05625 363.08964844 88.675 363.75351562 89.3125 364.4375 C89.9725 364.4375 90.6325 364.4375 91.3125 364.4375 C91.3125 365.0975 91.3125 365.7575 91.3125 366.4375 C92.86025998 368.04230279 92.86025998 368.04230279 94.875 369.6875 C95.53628906 370.24953125 96.19757813 370.8115625 96.87890625 371.390625 C98.08353516 372.40382813 98.08353516 372.40382813 99.3125 373.4375 C99.83102539 373.89833984 100.34955078 374.35917969 100.88378906 374.83398438 C105.00568369 378.46944423 109.26108661 381.55558461 113.9375 384.4375 C114.63190186 384.86683838 115.32630371 385.29617676 116.04174805 385.73852539 C129.2429096 393.75950343 145.77556227 401.94712188 161.6875 398.8125 C165.63851901 397.31383762 167.61204221 395.64429362 170.3125 392.4375 C169.7706704 390.40499989 169.7706704 390.40499989 168.3125 388.4375 C165.39378048 387.46914998 165.39378048 387.46914998 161.9375 387 C148.18321377 384.35279013 136.3321874 377.99497231 125.52734375 369.16015625 C123.51703267 367.23285313 123.51703267 367.23285313 121.3125 367.4375 C121.3125 366.7775 121.3125 366.1175 121.3125 365.4375 C119.75866853 363.90512449 119.75866853 363.90512449 117.75 362.3125 C113.99493387 359.14437138 110.85984343 355.74319764 107.7578125 351.94140625 C107.28085937 351.44511719 106.80390625 350.94882812 106.3125 350.4375 C105.6525 350.4375 104.9925 350.4375 104.3125 350.4375 C103.3125 348.4375 102.3125 346.4375 101.3125 344.4375 C100.6525 344.4375 99.9925 344.4375 99.3125 344.4375 C99.0546875 343.72464844 98.796875 343.01179688 98.53125 342.27734375 C96.81435114 338.2767493 94.38922798 334.85898256 91.96875 331.25390625 C88.84378514 325.93999194 87.82926447 321.59478352 88.71484375 315.55859375 C89.70620369 312.04023787 91.35593322 310.49424211 94.3125 308.4375 C99.33892706 307.06665626 102.58712358 307.33798251 107.3125 309.4375 C109.55466487 311.37683448 111.45289782 313.56054029 113.375 315.8125 C127.19220188 331.66424505 148.67420927 337.89881943 169.3125 339.4375 C188.33448531 340.25575507 207.50033578 340.60070325 223.3125 328.4375 C223.3125 327.7775 223.3125 327.1175 223.3125 326.4375 C223.9725 326.4375 224.6325 326.4375 225.3125 326.4375 C227.14941257 322.65562119 227.47087626 320.49181692 226.3125 316.4375 C221.91619074 316.11581883 219.12654619 316.89486549 215.13549805 318.66918945 C193.50667743 327.78475106 163.44834622 323.48651709 142.22900391 315.22802734 C133.09284009 311.45950525 124.43044717 307.18815701 116.9140625 300.6875 C115.38833233 299.23240971 115.38833233 299.23240971 113.3125 299.4375 C113.3125 298.7775 113.3125 298.1175 113.3125 297.4375 C111.84956669 296.24055457 110.38513257 295.04535447 108.91015625 293.86328125 C104.71483696 290.11929215 102.64581729 285.84759226 102.109375 280.359375 C102.09390625 279.64265625 102.0784375 278.9259375 102.0625 278.1875 C102.03671875 277.48109375 102.0109375 276.7746875 101.984375 276.046875 C102.99196262 268.03415442 106.47857521 263.57318663 112.1875 258.25 C113.10595703 257.36538086 113.10595703 257.36538086 114.04296875 256.46289062 C116.66584014 253.9383067 119.31156704 251.43838197 121.95703125 248.9375 C144.02920271 225.51098303 152.16018093 190.97439929 151.23095703 159.69238281 C150.12099321 136.81818329 145.06034654 114.72200827 132.3125 95.4375 C131.89774414 94.8098877 131.48298828 94.18227539 131.05566406 93.53564453 C129.6309142 91.39152097 128.19333277 89.25665444 126.75 87.125 C126.29085205 86.44260254 125.8317041 85.76020508 125.35864258 85.05712891 C122.64591989 81.10931781 119.80974229 77.74295804 116.3125 74.4375 C115.59707031 73.69886719 114.88164062 72.96023437 114.14453125 72.19921875 C113.47808594 71.51472656 112.81164062 70.83023438 112.125 70.125 C111.45082031 69.42761719 110.77664063 68.73023438 110.08203125 68.01171875 C108.45819097 66.21594303 108.45819097 66.21594303 106.3125 66.4375 C106.3125 65.7775 106.3125 65.1175 106.3125 64.4375 C104.49594955 62.81700221 102.68727248 61.34009875 100.75 59.875 C99.87468628 59.21008545 99.87468628 59.21008545 98.98168945 58.53173828 C92.40254899 53.63031789 85.48509792 49.40804528 78.3125 45.4375 C77.67441406 45.08413574 77.03632813 44.73077148 76.37890625 44.36669922 C59.86843945 35.36816261 42.77194844 30.62650099 24.3125 27.4375 C23.39251221 27.2617041 22.47252441 27.0859082 21.5246582 26.90478516 C17.87048868 26.37319889 14.27447979 26.23966877 10.58984375 26.19921875 C9.85587875 26.18947021 9.12191376 26.17972168 8.3657074 26.16967773 C-7.75705963 25.99967696 -23.00513442 26.27508403 -38.6875 30.4375 Z M-210.40234375 237.56640625 C-213.32943811 241.82804211 -212.33893936 247.54901289 -211.6875 252.4375 C-205.57066122 270.63117432 -189.62449917 283.63616934 -173.1953125 292.2734375 C-167.40177761 295.11159756 -162.33896319 297.58506113 -155.96875 295.41015625 C-155.2159375 295.08917969 -154.463125 294.76820313 -153.6875 294.4375 C-152.7078125 294.06496094 -151.728125 293.69242187 -150.71875 293.30859375 C-145.10322052 291.09157159 -139.83114085 288.59382507 -134.6875 285.4375 C-134.6875 285.1075 -134.6875 284.7775 -134.6875 284.4375 C-135.90824219 284.26734375 -137.12898438 284.0971875 -138.38671875 283.921875 C-158.10787778 281.06725883 -172.6878157 276.04882877 -187.6875 262.4375 C-188.0175 261.7775 -188.3475 261.1175 -188.6875 260.4375 C-189.3475 260.4375 -190.0075 260.4375 -190.6875 260.4375 C-191.3475 258.7875 -192.0075 257.1375 -192.6875 255.4375 C-193.3475 255.4375 -194.0075 255.4375 -194.6875 255.4375 C-194.935 254.798125 -195.1825 254.15875 -195.4375 253.5 C-198.90886638 244.26448492 -198.90886638 244.26448492 -204.6875 236.4375 C-208.47284181 236.07092594 -208.47284181 236.07092594 -210.40234375 237.56640625 Z M200.62890625 241.8828125 C199.14815179 244.75644282 197.72914146 247.6567546 196.3125 250.5625 C188.77696224 265.72848153 174.58803563 274.49750309 159.01171875 280.02734375 C154.16094199 281.59628935 149.28773214 282.40979055 144.25 283.125 C143.38439453 283.25455078 142.51878906 283.38410156 141.62695312 283.51757812 C139.52319392 283.83139856 137.41798743 284.13549214 135.3125 284.4375 C140.1097526 289.90992149 146.69522773 291.89634994 153.3125 294.4375 C154.11300781 294.78039062 154.91351563 295.12328125 155.73828125 295.4765625 C161.41723053 297.42301969 165.69260461 295.60939277 171.01074219 293.16040039 C181.00757254 288.26044294 189.3739006 282.22631451 197.3125 274.4375 C198.26962891 273.51710938 198.26962891 273.51710938 199.24609375 272.578125 C206.67602976 264.8337819 212.68564903 253.40150076 212.52734375 242.6015625 C212.41839329 240.29794409 212.41839329 240.29794409 211.125 237.875 C209.35493001 236.29566172 209.35493001 236.29566172 206.9375 235.6875 C203.25258227 236.74033364 202.4727084 238.63448395 200.62890625 241.8828125 Z " fill="#F8F8F7" transform="translate(262.6875,9.5625)"/>
<path d="M0 0 C3.94098221 3.31400776 5.5210347 5.54619628 6.1875 10.6875 C5.67231671 14.95616156 4.58506278 18.0988919 1.75 21.3125 C-1.49888366 23.61639586 -5.17391617 24.9025633 -8.875 26.3125 C-23.8386129 32.16782679 -39.30003568 41.50916248 -48.98046875 54.6640625 C-49.39941406 55.20804688 -49.81835938 55.75203125 -50.25 56.3125 C-50.91 56.3125 -51.57 56.3125 -52.25 56.3125 C-52.49234375 57.00601563 -52.7346875 57.69953125 -52.984375 58.4140625 C-54.45717902 61.78696553 -56.4282957 64.66787303 -58.5 67.6875 C-61.87434771 72.71329634 -64.33045803 77.62063108 -66.375 83.3125 C-68.8367989 90.1048583 -71.63548548 94.00524274 -78.25 97.3125 C-82.72118656 97.35642128 -86.32429685 96.86398273 -90.1875 94.5625 C-93.77593624 90.64784229 -94.73398916 87.0519001 -94.5546875 81.72265625 C-92.91118037 68.72209348 -85.92984077 55.79228272 -78.25 45.3125 C-77.59 45.3125 -76.93 45.3125 -76.25 45.3125 C-76.0128125 44.59707031 -75.775625 43.88164063 -75.53125 43.14453125 C-74.04179731 39.85229589 -72.18205153 37.66499153 -69.75 35 C-68.9559375 34.11699219 -68.161875 33.23398438 -67.34375 32.32421875 C-65.25 30.3125 -65.25 30.3125 -63.25 30.3125 C-63.25 29.6525 -63.25 28.9925 -63.25 28.3125 C-62.59 28.3125 -61.93 28.3125 -61.25 28.3125 C-61.25 27.6525 -61.25 26.9925 -61.25 26.3125 C-49.81622992 14.85434143 -16.89774766 -8.77383052 0 0 Z " fill="#F7F6F6" transform="translate(220.25,53.6875)"/>
<path d="M0 0 C0 0.66 0 1.32 0 2 C0.66 2 1.32 2 2 2 C3.4375 3.94140625 3.4375 3.94140625 5 6.5625 C5.515625 7.40941406 6.03125 8.25632813 6.5625 9.12890625 C11.01665704 18.02511665 11.51258713 28.6888606 9.20703125 38.30859375 C7.60336491 42.83695425 5.70002892 47.01019349 3 51 C2.34 51 1.68 51 1 51 C1 51.66 1 52.32 1 53 C0.34 53 -0.32 53 -1 53 C-1 53.66 -1 54.32 -1 55 C-2.39077301 55.82113177 -3.78788893 56.63152495 -5.1875 57.4375 C-5.96480469 57.88996094 -6.74210937 58.34242188 -7.54296875 58.80859375 C-12.84955227 61.38173838 -18.73119078 61.92116202 -24.42578125 60.31640625 C-30.07126345 58.25182171 -35.02249004 55.60969697 -39 51 C-39 50.34 -39 49.68 -39 49 C-39.66 49 -40.32 49 -41 49 C-46.73040128 38.30043156 -49.30993359 27.14502639 -45.84375 15.08984375 C-43.99548632 10.51196842 -41.48724006 6.25490123 -39 2 C-38.34 2 -37.68 2 -37 2 C-37 1.34 -37 0.68 -37 0 C-25.15947418 -9.82511717 -12.11918871 -8.07945914 0 0 Z " fill="#F9F9F8" transform="translate(353,203)"/>
<path d="M0 0 C2.75 2.4375 2.75 2.4375 5 5 C6.0209375 6.051875 6.0209375 6.051875 7.0625 7.125 C13.10083256 16.08510638 13.97524401 25.40156505 13 36 C11.5705628 43.13690228 8.00092238 48.99861643 4 55 C3.34 55 2.68 55 2 55 C2 55.66 2 56.32 2 57 C0.60922699 57.82113177 -0.78788893 58.63152495 -2.1875 59.4375 C-2.96480469 59.88996094 -3.74210937 60.34242188 -4.54296875 60.80859375 C-10.56161406 63.72701477 -17.06466866 63.72540277 -23.4375 61.9375 C-31.5483163 58.98057549 -37.29860178 52.67538003 -41 45 C-44.96107348 35.41224265 -44.5831264 22.57862351 -40.6875 13.0625 C-39.10894761 9.76792368 -37.39679984 6.76949258 -35 4 C-34.34 4 -33.68 4 -33 4 C-33 3.34 -33 2.68 -33 2 C-23.03172904 -6.27154399 -10.82773685 -7.09976605 0 0 Z " fill="#F9F9F8" transform="translate(204,201)"/>
<path d="M0 0 C0.66 0.33 1.32 0.66 2 1 C0.84826645 3.46800047 -0.04783565 5.04783565 -2 7 C-2 6.34 -2 5.68 -2 5 C-3.65 5.66 -5.3 6.32 -7 7 C-5.37660195 5.29115995 -3.70680947 3.62553283 -2 2 C-1.34 2 -0.68 2 0 2 C0 1.34 0 0.68 0 0 Z " fill="#D4D4C6" transform="translate(486,336)"/>
<path d="M0 0 C0.33 0.99 0.66 1.98 1 3 C-0.65 4.65 -2.3 6.3 -4 8 C-4.99 7.67 -5.98 7.34 -7 7 C-4.69 4.69 -2.38 2.38 0 0 Z " fill="#D1D1CE" transform="translate(169,374)"/>
<path d="M0 0 C0 0.99 0 1.98 0 3 C-1.98 3.99 -1.98 3.99 -4 5 C-4 6.32 -4 7.64 -4 9 C-4.99 9 -5.98 9 -7 9 C-5.64978174 4.58110387 -3.73884332 2.65654657 0 0 Z " fill="#CECECB" transform="translate(453,227)"/>
<path d="M0 0 C5.75 1.75 5.75 1.75 8 4 C6.68 4.99 5.36 5.98 4 7 C3.566875 6.0409375 3.566875 6.0409375 3.125 5.0625 C2.17176549 2.84793921 2.17176549 2.84793921 0 2 C0 1.34 0 0.68 0 0 Z " fill="#C4D6C3" transform="translate(385,399)"/>
<path d="M0 0 C0.66 0.33 1.32 0.66 2 1 C0.02 3.31 -1.96 5.62 -4 8 C-5.32 7.67 -6.64 7.34 -8 7 C-5.36 4.69 -2.72 2.38 0 0 Z " fill="#C7C6C2" transform="translate(159,383)"/>
<path d="M0 0 C0.99 0.66 1.98 1.32 3 2 C3 2.66 3 3.32 3 4 C-1.455 3.01 -1.455 3.01 -6 2 C-6 1.67 -6 1.34 -6 1 C-4.7934375 1.0309375 -4.7934375 1.0309375 -3.5625 1.0625 C-1.06645115 1.29633621 -1.06645115 1.29633621 0 0 Z " fill="#D2D1CE" transform="translate(93,427)"/>
<path d="M0 0 C2.4375 0.625 2.4375 0.625 5 2 C5.8125 5.125 5.8125 5.125 6 8 C1.125 3.375 1.125 3.375 0 0 Z " fill="#C8C8C7" transform="translate(14,345)"/>
<path d="M0 0 C0.99 1.32 1.98 2.64 3 4 C1.35 5.65 -0.3 7.3 -2 9 C-1.34 6.03 -0.68 3.06 0 0 Z " fill="#CECDCB" transform="translate(163,215)"/>
</svg>
